<?xml version="1.0" encoding="UTF-8"?>
<svg id="Layer_1" xmlns="http://www.w3.org/2000/svg" version="1.1" viewBox="0 0 314.21 151.48">
  <!-- Generator: Adobe Illustrator 30.1.0, SVG Export Plug-In . SVG Version: 2.1.1 Build 136)  -->
  <defs>
    <style>
      .st0 {
        fill: #2e76ef;
      }

      .st1 {
        fill: #fff;
      }

      .st2 {
        fill: #e9862a;
      }

      .st3 {
        fill: #ed0778;
      }

      .st4 {
        fill: #50c878;
      }
    </style>
  </defs>
  <path class="st3" d="M88.9,5c6.23,0,12.26,2.82,16.12,7.53.36.44.7.89,1.01,1.35.04.06.09.13.13.19,3.29,4.38,4.34,10.47,2.74,15.9-.75,2.55-2.8,7.09-8.06,9.19-12.81,2.53-22.66,10.04-27.59,20.7-6.43-10.51-8.78-25.84-5.29-37.61,1.82-6.14,6.07-14.01,15.96-16.62,1.61-.42,3.29-.63,4.98-.63M88.9,0c-2.09,0-4.18.26-6.23.79-27.59,7.3-25.78,49.38-9.42,67.42.41.44,1.07,1.29,1.62,1.29.11,0,.21-.03.31-.11.14-.11.26-.31.36-.62,2.92-13.68,13.32-22.27,26.68-24.77,13.23-4.87,15.9-22.35,7.94-32.93-.4-.59-.83-1.15-1.27-1.7-4.87-5.96-12.38-9.37-19.99-9.37h0Z"/>
  <path class="st4" d="M50.81,83.65c1.53,0,3.12.06,4.72.17,1.08.07,2.1.16,3.13.28.49.06.96.11,1.41.16-4.13,6.14-7.07,12.71-8.54,19.1-.44,1.83-.69,3.62-.94,5.35-.44,3.06-.82,5.7-2.02,7.8-2.23,3.81-6.45,6.9-10.56,7.76-.72.05-1.44.08-2.13.08-1,0-2-.06-2.95-.16-11.31-1.3-15.92-9.86-15.47-17.76.65-11.33,11.21-22.76,33.35-22.76M50.81,78.65c-46.61,0-48.25,47.07-18.45,50.48,1.13.13,2.3.2,3.52.2.91,0,1.85-.04,2.81-.12,5.42-1.01,11.1-4.91,14.2-10.19,2.54-4.43,2.35-9.63,3.51-14.51,1.59-6.91,4.95-13.56,9.04-19.22,2.52-3.4,3.93-4.66,3.55-5.18-.14-.19-.52-.28-1.16-.34-1.43-.13-4.17-.11-8.59-.66-1.15-.13-2.27-.22-3.37-.3-1.74-.12-3.43-.18-5.06-.18h0v.02Z"/>
  <path class="st0" d="M74.02,93.08c1.66,3.12,3.73,5.98,6.1,8.38l.05.05c2.31,2.29,5.13,4.35,8.16,5.96,3.99,2.19,7.81,2.69,10.88,3.1,3.86.51,6.2.81,8.64,3.74,7.08,9.49,3.87,18.98-1.5,24.7-4.38,4.67-10.62,7.46-16.68,7.46-4.3,0-8.33-1.33-11.98-3.96-.02-.02-.05-.03-.07-.05-7.46-5.17-9.87-13.06-10.58-18.76-1.22-9.84,1.57-21.53,6.97-30.63M75.1,83.44c-.11,0-.24.05-.39.16h0c-14.28,16.34-20.03,49.05.08,62.98,4.75,3.41,9.89,4.9,14.9,4.9,7.75,0,15.18-3.56,20.32-9.04,7.51-8,10.14-20.1,1.78-31.21-6.28-7.67-13.29-3.86-21.07-8.15-2.54-1.35-5-3.12-7.02-5.11-3.62-3.68-6.35-8.52-7.83-13.49-.14-.42-.36-1.03-.77-1.03h0Z"/>
  <path class="st2" d="M30.02,26.82h0c5.04,0,9.9,2.32,14.45,6.9.07.07.11.11.19.18l.06.06c.28.25.55.51.81.79,3.37,3.53,4.34,8.15,5.46,13.5.6,2.86,1.22,5.81,2.27,8.86,1.25,3.54,2.87,6.66,4.76,9.63-.67-.02-1.36-.04-2.08-.04-3.8,0-7.56.34-11.2.67-3.56.32-6.93.62-10.24.62-2.78,0-5.2-.22-7.4-.68-1.6-.33-3.06-.78-4.49-1.37-1.17-.51-2.3-1.08-3.34-1.69-11.35-6.67-10.04-16.71-8.95-20.72,2.59-9.53,11.06-16.71,19.7-16.71M30.02,21.82c-21.35,0-37.59,32.46-13.29,46.74,1.2.71,2.5,1.37,3.91,1.98,1.79.75,3.6,1.28,5.43,1.66,2.77.58,5.58.78,8.42.78,7.09,0,14.31-1.29,21.44-1.29,1.26,0,2.52.04,3.77.14,2.47.21,5.15.78,7.63,1.16.35.05.67.12.89.12.34,0,.45-.15.06-.72-4.22-5.38-8.02-10.42-10.32-16.96-2.9-8.42-2.41-17.42-8.83-24.14-.34-.35-.7-.7-1.07-1.04-.02-.02-.03-.03-.05-.05-5.89-5.93-12.14-8.38-17.99-8.38h0Z"/>
  <g>
    <path class="st1" d="M93.85,52.7c.11-.61.7-1.17,1.37-1.17h14.82c7.57,0,12.69,6.15,11.38,13.59s-8.65,13.84-16.16,13.84h-6.46l-2.55,14.45c-.11.62-.76,1.17-1.37,1.17h-7.26c-.68,0-1.07-.55-.96-1.17l7.18-40.72ZM106.24,69.98c2.65,0,5.23-2.09,5.72-4.86.46-2.58-1.41-4.55-4.06-4.55h-5.84l-1.66,9.41h5.84Z"/>
    <path class="st1" d="M129.9,52.7c.11-.61.7-1.17,1.37-1.17h14.82c7.57,0,12.69,6.15,11.38,13.59s-8.65,13.84-16.16,13.84h-6.46l-2.55,14.45c-.11.62-.76,1.17-1.37,1.17h-7.26c-.68,0-1.07-.55-.96-1.17l7.18-40.72ZM142.29,69.98c2.64,0,5.23-2.09,5.72-4.86.46-2.58-1.41-4.55-4.06-4.55h-5.84l-1.66,9.41h5.84Z"/>
    <path class="st1" d="M157.31,88.74l3.79-5.1c.63-.8,1.78-.68,2.16-.37.22.12,4.08,3.38,8.14,3.38,2.46,0,4.52-1.54,4.89-3.69.46-2.58-1.35-4.55-5.24-6.21-4.92-2.09-10.84-6.21-9.54-13.59,1.07-6.09,6.89-12.24,16.37-12.24,6.4,0,10.74,3.26,12.35,4.61.66.43.34,1.54.02,1.97l-3.97,4.74c-.55.68-1.75,1.23-2.23.8-.5-.31-4.39-3.69-8.15-3.69-2.21,0-4.14,1.48-4.43,3.14-.4,2.28,1.14,4,5.65,5.97,4.46,1.91,11.43,5.66,9.95,14.02-1.12,6.33-7.72,12.73-16.76,12.73-8,0-11.84-3.32-13-4.74-.51-.62-.65-.86,0-1.72Z"/>
    <path class="st1" d="M219.22,50.92c6.15,0,10.37,1.91,13.88,5.72.47.49.34,1.23-.24,1.72l-5.68,4.98c-.51.43-1.18.43-1.54,0-1.92-2.03-4.74-3.14-7.75-3.14-6.95,0-13.08,5.78-14.29,12.67s2.96,12.49,9.92,12.49c2.89,0,6.21-1.04,8.76-2.95.5-.37,1.29-.37,1.59.06l3.9,5.11c.35.43.15,1.23-.35,1.66-4.9,4.06-10.52,5.97-16,5.97-12.3,0-20.48-9.78-18.31-22.08s13.82-22.2,26.12-22.2Z"/>
    <path class="st1" d="M245.38,60.57h-8.8c-.68,0-1.07-.55-.96-1.17l1.18-6.7c.11-.61.7-1.17,1.37-1.17h27.31c.68,0,1.07.55.96,1.17l-1.18,6.7c-.11.62-.7,1.17-1.37,1.17h-8.8l-5.79,32.85c-.11.62-.76,1.17-1.38,1.17h-7.38c-.62,0-1.07-.55-.96-1.17l5.79-32.85Z"/>
    <path class="st1" d="M268.9,53.13c-.23-.8.41-1.6,1.33-1.6h8.18c.49,0,.86.37.93.68l6.19,22.45h.37l14.11-22.45c.18-.31.67-.68,1.17-.68h8.18c.92,0,1.27.8.76,1.6l-26.61,41.4c-.25.37-.67.68-1.17.68h-.62c-.49,0-.81-.31-.93-.68l-11.89-41.4Z"/>
  </g>
</svg>